<?xml version="1.0" encoding="utf-8"?>
<!-- Generator: Adobe Illustrator 16.0.0, SVG Export Plug-In . SVG Version: 6.00 Build 0)  -->
<!DOCTYPE svg PUBLIC "-//W3C//DTD SVG 1.1//EN" "http://www.w3.org/Graphics/SVG/1.1/DTD/svg11.dtd">
<svg version="1.1" id="Layer_1" xmlns="http://www.w3.org/2000/svg" xmlns:xlink="http://www.w3.org/1999/xlink" x="0px" y="0px"
	 width="700px" height="700px" viewBox="0 0 700 700" enable-background="new 0 0 700 700" xml:space="preserve">
<path opacity="0.26" fill="#E2EBF8" d="M21.824,352.881c-34.705-325.392,86.436-369.93,327.865-322.5
	C564.726,72.626,688.14,113.352,688.14,332.497c0,219.145-133.144,412.372-336.168,338.774
	C145.947,596.586,44.114,561.879,21.824,352.881z"/>
<g>
	<g>
		<linearGradient id="SVGID_1_" gradientUnits="userSpaceOnUse" x1="16.8833" y1="496.1719" x2="86.1401" y2="496.1719">
			<stop  offset="0" style="stop-color:#3376A1"/>
			<stop  offset="1" style="stop-color:#639D42"/>
		</linearGradient>
		<path fill="url(#SVGID_1_)" d="M22.935,404.656c5.972-2.857,11.916,16.154,11.916,16.154c10.15,13.413,24.335-4.432,22.948,15.619
			c-2.427,35.084,40.383,11.031,20.633,47.661c-19.751,36.63,17.438,20.712,5.165,50.247c-12.273,29.534,3.635,64.76-14.833,50.285
			c0,0-16.261-35.66-33.031-46.693c-16.77-11.03,10.046-24.122,4.799-39.106c-7.621-21.767-25.982-20.911-12.744-44.3
			C41.028,431.134,2.634,414.364,22.935,404.656z"/>
		<g>
			<path fill="#FFFFFF" d="M74.611,571.202c-8.004-5.629-17.373-44.862-17.932-68.229c-0.287-11.971-3.825-16.956-6.947-21.357
				c-2.984-4.205-5.561-7.837-4.06-16.178c2.869-15.936-4.674-22.816-4.75-22.885l0.874-0.995c0.335,0.295,8.19,7.389,5.18,24.115
				c-1.403,7.792,0.909,11.052,3.836,15.177c3.072,4.33,6.895,9.716,7.191,22.091c0.599,25.08,10.177,62.122,17.37,67.179
				L74.611,571.202z"/>
		</g>
		<g>
			<linearGradient id="SVGID_2_" gradientUnits="userSpaceOnUse" x1="67.689" y1="534.8174" x2="130.3193" y2="534.8174">
				<stop  offset="0" style="stop-color:#3376A1"/>
				<stop  offset="1" style="stop-color:#639D42"/>
			</linearGradient>
			<path fill="url(#SVGID_2_)" d="M77.606,574.109c-1.032,0-2.155-0.117-3.384-0.366c-3.085-0.624-5.108-2.252-6.013-4.838
				c-2.158-6.172,2.842-16.196,6.9-21.028c0.067-0.081,6.859-8.383,6.135-19.889c-0.122-1.929-0.322-3.714-0.498-5.289
				c-0.51-4.554-0.879-7.844,1.077-10.04c1.723-1.938,5.05-2.775,11.125-2.805c10.654-0.05,14.866-4.46,18.251-8.005
				c1.438-1.505,2.795-2.928,4.445-3.828l0,0c5.308-2.897,10.932-3.323,13.371-1.012c1.158,1.097,2.137,3.248,0.217,7.26
				c-1.753,3.664-4.027,5.986-5.855,7.851c-2.459,2.509-4.083,4.166-3.237,7.47c0.198,0.777,0.427,1.559,0.657,2.345
				c1.643,5.618,3.504,11.985-6.11,16.306c-2.04,0.917-3.899,1.646-5.54,2.29c-6.711,2.633-10.761,4.224-15.334,13.876
				c-0.885,1.87-1.667,3.641-2.423,5.353C87.786,567.93,85.057,574.109,77.606,574.109z M116.278,499.184
				c-1.469,0.802-2.698,2.09-4.122,3.58c-3.557,3.727-7.985,8.362-19.202,8.415c-5.586,0.025-8.713,0.755-10.143,2.359
				c-1.563,1.758-1.222,4.802-0.75,9.014c0.178,1.589,0.379,3.392,0.503,5.353c0.759,12.05-6.146,20.469-6.44,20.821
				c-4.018,4.784-8.567,14.304-6.665,19.743c0.739,2.114,2.43,3.452,5.024,3.977c9.055,1.83,11.555-3.835,15.696-13.222
				c0.759-1.72,1.544-3.499,2.437-5.385c4.797-10.127,9.273-11.883,16.048-14.541c1.626-0.64,3.469-1.361,5.48-2.267
				c8.562-3.848,7.017-9.131,5.382-14.724c-0.235-0.801-0.468-1.599-0.67-2.389c-1.03-4.026,1.002-6.101,3.576-8.726
				c1.85-1.888,3.948-4.028,5.607-7.495c0.869-1.817,1.586-4.286,0.066-5.728C126.104,496.073,121.02,496.596,116.278,499.184
				L116.278,499.184z"/>
		</g>
		<g>
			<linearGradient id="SVGID_3_" gradientUnits="userSpaceOnUse" x1="73.043" y1="543.9258" x2="120.0508" y2="543.9258">
				<stop  offset="0" style="stop-color:#3376A1"/>
				<stop  offset="1" style="stop-color:#639D42"/>
			</linearGradient>
			<path fill="url(#SVGID_3_)" d="M74.365,581.754l-1.322-0.07c0.065-1.242,1.732-30.52,13.488-39.09
				c12.897-9.4,16.963-19.502,18.9-26.283c2.282-7.99,13.896-10.126,14.39-10.213l0.229,1.303
				c-0.113,0.021-11.292,2.08-13.347,9.272c-1.99,6.969-6.166,17.351-19.394,26.992C76.059,551.865,74.38,581.456,74.365,581.754z"
				/>
		</g>
		<linearGradient id="SVGID_4_" gradientUnits="userSpaceOnUse" x1="56.0679" y1="506.0977" x2="110.8125" y2="506.0977">
			<stop  offset="0" style="stop-color:#3376A1"/>
			<stop  offset="1" style="stop-color:#639D42"/>
		</linearGradient>
		<path fill="url(#SVGID_4_)" d="M101.242,434.202c-8.355-2.865-6.619,13.239-10.15,25.154c-3.53,11.916-39.276,5.198-24.272,35.035
			c15.005,29.839-18.976,9.979-8.825,36.016c10.149,26.038,0.881,53.885,11.914,46.801c11.033-7.083,6.198-39.871,17.673-43.766
			c11.474-3.897,13.347-8.442,1.986-19.032c-11.36-10.592,29.768-21.106,19.618-42.493S110.896,437.512,101.242,434.202z"/>
		<g>
			<path fill="#FFFFFF" d="M75.029,575.961c-1.05-4.457-10.024-43.684-1.651-48.426c7.38-4.179,7.198-20.433,6.046-35.781
				c-1.019-13.588,16.431-19.938,17.174-20.203l0.443,1.249c-0.173,0.061-17.24,6.277-16.297,18.854
				c1.183,15.762,1.309,32.489-6.714,37.033c-6.358,3.601-0.504,35.125,2.288,46.969L75.029,575.961z"/>
		</g>
		<linearGradient id="SVGID_5_" gradientUnits="userSpaceOnUse" x1="43.5039" y1="584.6221" x2="94.022" y2="584.6221">
			<stop  offset="0" style="stop-color:#F79245"/>
			<stop  offset="1" style="stop-color:#FFCF46"/>
		</linearGradient>
		<polygon fill="url(#SVGID_5_)" points="94.022,561.993 82.093,607.251 55.434,607.251 43.504,561.993 		"/>
		<linearGradient id="SVGID_6_" gradientUnits="userSpaceOnUse" x1="43.5039" y1="584.6221" x2="94.022" y2="584.6221">
			<stop  offset="0" style="stop-color:#C97332"/>
			<stop  offset="1" style="stop-color:#FFCF46"/>
		</linearGradient>
		<path fill="url(#SVGID_6_)" d="M94.022,561.993c0,0-26.261,4.931-26.261,45.258H55.434l-11.93-45.258H94.022z"/>
	</g>
	<g>
		<polygon fill="#85BEE8" points="606.785,388.941 543.248,388.941 543.248,387.806 605.649,387.806 605.649,336.545 
			606.785,336.545 		"/>
	</g>
	<g>
		<g>
			<g>
				<path fill="#6FAFE0" d="M595.879,296.81h-30.376v-30.377h30.376V296.81z M566.514,295.797h28.353v-28.352h-28.353V295.797z"/>
			</g>
			<g>
				<path fill="#6FAFE0" d="M671.485,277.571h-69.53v-7.426h69.53V277.571z M602.968,276.559h67.506v-5.401h-67.506V276.559z"/>
			</g>
			<g>
				<path fill="#6FAFE0" d="M671.485,312.104H565.503v-7.426h105.982V312.104z M566.514,311.092h103.96v-5.401h-103.96V311.092z"/>
			</g>
			<g>
				<path fill="#6FAFE0" d="M633.008,326.365h-67.505v-7.425h67.505V326.365z M566.514,325.353h65.482v-5.401h-65.482V325.353z"/>
			</g>
			<g>
				<path fill="#6FAFE0" d="M649.04,291.736h-47.085v-7.426h47.085V291.736z M602.968,290.724h45.061v-5.4h-45.061V290.724z"/>
			</g>
		</g>
		<g>
			<path fill="#6FAFE0" d="M683.552,342.514H553.435v-92.23h130.117V342.514z M554.446,341.501H682.54v-90.205H554.446V341.501z"/>
		</g>
	</g>
	<g>
		<path fill="#85BEE8" d="M606.218,337.308c-2.296,0-4.167-1.869-4.167-4.166c0-2.298,1.871-4.167,4.167-4.167
			c2.297,0,4.167,1.869,4.167,4.167C610.385,335.439,608.515,337.308,606.218,337.308z M606.218,330.11
			c-1.673,0-3.033,1.36-3.033,3.032s1.36,3.032,3.033,3.032s3.031-1.36,3.031-3.032S607.891,330.11,606.218,330.11z"/>
	</g>
	<g>
		<path fill="#6FAFE0" d="M170.607,310.809H94.704l0.131-0.676c1.219-6.252,6.736-10.791,13.119-10.791
			c0.921,0,1.839,0.096,2.735,0.285c3.956-7.516,11.638-12.165,20.158-12.165c7.259,0,14.104,3.484,18.393,9.342
			c1.564-0.476,3.189-0.716,4.838-0.716c8.26,0,15.168,5.916,16.427,14.066L170.607,310.809z M96.102,309.674h73.167
			c-1.425-7.144-7.841-12.451-15.19-12.451c-1.668,0-3.309,0.264-4.88,0.785l-0.4,0.133l-0.242-0.345
			c-4.06-5.76-10.68-9.199-17.709-9.199c-8.237,0-15.65,4.574-19.348,11.936l-0.203,0.405l-0.44-0.108
			c-0.945-0.233-1.922-0.352-2.903-0.352C102.346,300.478,97.468,304.305,96.102,309.674z"/>
	</g>
	<g>
		<linearGradient id="SVGID_7_" gradientUnits="userSpaceOnUse" x1="217.4785" y1="587.9863" x2="486.7559" y2="587.9863">
			<stop  offset="0" style="stop-color:#F89E59"/>
			<stop  offset="1" style="stop-color:#FFD256"/>
		</linearGradient>
		<polygon fill="url(#SVGID_7_)" points="469.907,556.5 352.117,556.5 234.327,556.5 217.479,619.472 352.117,619.472 
			486.756,619.472 		"/>
		<path fill="#FFFFFF" d="M236.183,573.224h15.415c0.644,0,1.129,0.5,1.009,1.041l-1.492,6.705
			c-0.093,0.414-0.516,0.714-1.011,0.714h-15.677c-0.658,0-1.146-0.52-1.003-1.068l1.756-6.704
			C235.285,573.509,235.703,573.224,236.183,573.224z"/>
		<polygon fill="#FFFFFF" points="258.665,573.224 270.318,573.224 268.767,581.684 256.893,581.684 		"/>
		<polygon fill="#FFFFFF" points="276.145,573.224 287.797,573.224 286.578,581.684 274.702,581.694 		"/>
		<polygon fill="#FFFFFF" points="293.624,573.224 305.276,573.224 304.391,581.684 292.516,581.684 		"/>
		<polygon fill="#FFFFFF" points="311.103,573.224 322.756,573.224 322.201,581.684 310.327,581.684 		"/>
		<polygon fill="#FFFFFF" points="328.582,573.224 340.235,573.224 340.013,581.684 328.138,581.694 		"/>
		<polygon fill="#FFFFFF" points="468.454,573.224 450.975,573.224 452.858,581.684 470.669,581.684 		"/>
		<polygon fill="#FFFFFF" points="445.148,573.224 433.495,573.224 435.047,581.684 446.921,581.684 		"/>
		<polygon fill="#FFFFFF" points="427.669,573.224 416.018,573.224 417.236,581.684 429.111,581.694 		"/>
		<polygon fill="#FFFFFF" points="410.191,573.224 398.537,573.224 399.424,581.684 411.299,581.684 		"/>
		<polygon fill="#FFFFFF" points="392.711,573.224 381.059,573.224 381.612,581.684 393.486,581.684 		"/>
		<polygon fill="#FFFFFF" points="375.231,573.224 363.578,573.224 363.8,581.684 375.676,581.694 		"/>
		<polygon fill="#FFFFFF" points="346.061,573.224 357.714,573.224 357.907,581.684 346.061,581.684 		"/>
		<polygon fill="#FFFFFF" points="231.057,587.985 255.406,587.985 254.02,596.711 229.208,596.711 		"/>
		<polygon fill="#FFFFFF" points="472.256,587.985 442.158,587.985 443.872,596.711 474.542,596.711 		"/>
		<polygon fill="#FFFFFF" points="436.137,587.985 424.099,587.985 425.47,596.711 437.738,596.711 		"/>
		<polygon fill="#FFFFFF" points="418.079,587.985 406.038,587.985 407.068,596.711 419.336,596.711 		"/>
		<polygon fill="#FFFFFF" points="400.02,587.985 387.979,587.985 388.666,596.711 400.933,596.711 		"/>
		<polygon fill="#FFFFFF" points="381.961,587.985 369.921,587.985 370.265,596.711 382.532,596.711 		"/>
		<polygon fill="#FFFFFF" points="227.419,603.54 252.313,603.54 250.496,612.207 225.148,612.207 		"/>
		<polygon fill="#FFFFFF" points="258.536,603.54 270.983,603.54 269.507,612.207 256.833,612.207 		"/>
		<polygon fill="#FFFFFF" points="277.207,603.54 289.653,603.54 370.55,603.54 370.898,612.207 275.844,612.207 		"/>
		<polygon fill="#FFFFFF" points="376.781,603.54 389.229,603.54 389.91,612.207 377.235,612.207 		"/>
		<polygon fill="#FFFFFF" points="395.451,603.54 407.897,603.54 408.92,612.207 396.245,612.207 		"/>
		<polygon fill="#FFFFFF" points="414.123,603.54 426.569,603.54 427.931,612.207 415.258,612.207 		"/>
		<polygon fill="#FFFFFF" points="432.792,603.54 445.238,603.54 446.942,612.207 434.268,612.207 		"/>
		<polygon fill="#FFFFFF" points="451.464,603.54 476.355,603.54 478.626,612.207 453.278,612.207 		"/>
		<polygon fill="#FFFFFF" points="363.927,587.985 351.984,587.985 351.984,596.711 364.156,596.711 		"/>
		<polygon fill="#FFFFFF" points="345.868,587.985 333.828,587.985 333.485,596.711 345.753,596.711 		"/>
		<polygon fill="#FFFFFF" points="327.808,587.985 315.77,587.985 315.083,596.711 327.352,596.711 		"/>
		<polygon fill="#FFFFFF" points="309.75,587.985 297.709,587.985 296.681,596.711 308.949,596.711 		"/>
		<polygon fill="#FFFFFF" points="291.69,587.985 279.65,587.985 278.279,596.711 290.547,596.711 		"/>
		<polygon fill="#FFFFFF" points="273.631,587.985 261.592,587.985 259.877,596.711 272.146,596.711 		"/>
		<polygon fill="#FFFFFF" points="236.752,567.908 238.73,560.356 244.389,560.356 242.542,567.908 		"/>
		<polygon fill="#FFFFFF" points="250.046,560.356 261.361,560.356 259.779,567.908 248.267,567.908 		"/>
		<polygon fill="#FFFFFF" points="267.02,560.356 278.336,560.356 277.05,567.908 265.536,567.908 		"/>
		<polygon fill="#FFFFFF" points="283.993,560.356 295.309,560.356 294.32,567.908 282.807,567.908 		"/>
		<polygon fill="#FFFFFF" points="300.967,560.356 312.283,560.356 311.591,567.908 300.076,567.908 		"/>
		<polygon fill="#FFFFFF" points="317.94,560.356 329.255,560.356 328.86,567.908 317.347,567.908 		"/>
		<polygon fill="#FFFFFF" points="334.914,560.356 346.23,560.356 346.131,567.908 334.617,567.908 		"/>
		<polygon fill="#FFFFFF" points="351.888,560.356 363.202,560.356 363.401,567.908 351.888,567.908 		"/>
		<polygon fill="#FFFFFF" points="368.86,560.356 380.178,560.356 380.672,567.908 369.158,567.908 		"/>
		<polygon fill="#FFFFFF" points="385.835,560.356 397.151,560.356 397.942,567.908 386.429,567.908 		"/>
		<polygon fill="#FFFFFF" points="402.808,560.356 414.124,560.356 415.212,567.908 403.699,567.908 		"/>
		<polygon fill="#FFFFFF" points="419.782,560.356 431.097,560.356 432.482,567.908 420.969,567.908 		"/>
		<polygon fill="#FFFFFF" points="436.755,560.356 448.071,560.356 449.753,567.908 438.239,567.908 		"/>
		<polygon fill="#FFFFFF" points="453.729,560.356 465.044,560.356 467.023,567.908 455.508,567.908 		"/>
		<linearGradient id="SVGID_8_" gradientUnits="userSpaceOnUse" x1="92.6724" y1="621.3301" x2="361.9497" y2="621.3301">
			<stop  offset="0" style="stop-color:#E37D30"/>
			<stop  offset="1" style="stop-color:#E8A22E"/>
		</linearGradient>
		<rect x="217.479" y="619.472" fill="url(#SVGID_8_)" width="269.277" height="3.717"/>
	</g>
	<g>
		<rect x="334.394" y="423.13" fill="#6182C2" width="37.059" height="112.561"/>
	</g>
	<g>
		<linearGradient id="SVGID_9_" gradientUnits="userSpaceOnUse" x1="183.2671" y1="364.4775" x2="538.7739" y2="364.4775">
			<stop  offset="0" style="stop-color:#F89E59"/>
			<stop  offset="1" style="stop-color:#FFD256"/>
		</linearGradient>
		<path fill="url(#SVGID_9_)" d="M204.184,477.351h297.479c6.22,0,11.263-5.042,11.263-11.263V262.867
			c0-6.22-5.043-11.263-11.263-11.263H204.184c-6.222,0-11.264,5.043-11.264,11.263v203.221
			C192.92,472.309,197.962,477.351,204.184,477.351z"/>
	</g>
	<g>
		<linearGradient id="SVGID_10_" gradientUnits="userSpaceOnUse" x1="204.2319" y1="349.4897" x2="501.0469" y2="349.4897">
			<stop  offset="0" style="stop-color:#414C61"/>
			<stop  offset="0.4055" style="stop-color:#3E4960"/>
			<stop  offset="0.8419" style="stop-color:#35425E"/>
			<stop  offset="1" style="stop-color:#303F5D"/>
		</linearGradient>
		<rect x="204.232" y="262.661" fill="url(#SVGID_10_)" width="296.815" height="173.657"/>
	</g>
	<g>
		<circle fill="#6A6A6A" cx="352.924" cy="458.161" r="10.322"/>
	</g>
	<linearGradient id="SVGID_11_" gradientUnits="userSpaceOnUse" x1="269.561" y1="535.6904" x2="436.2842" y2="535.6904">
		<stop  offset="0" style="stop-color:#F89E59"/>
		<stop  offset="1" style="stop-color:#FFD256"/>
	</linearGradient>
	<rect x="269.561" y="531.441" fill="url(#SVGID_11_)" width="166.723" height="8.498"/>
	<g>
		<path fill="#6FAFE0" d="M450.975,176.189l-0.257-0.133c-26.937-13.752-23.318-40.385-23.28-40.652l0.074-0.484H428
			c17.125,0,22.507-5.52,22.56-5.576l0.418-0.443l0.414,0.445c0.051,0.054,5.434,5.574,22.559,5.574h0.49l0.072,0.484
			c0.04,0.268,3.656,26.9-23.28,40.652L450.975,176.189z M428.507,136.052c-0.341,3.608-1.475,26.47,22.468,38.861
			c23.943-12.391,22.809-35.253,22.469-38.861c-14.87-0.093-20.92-4.234-22.469-5.549
			C449.429,131.818,443.378,135.959,428.507,136.052z"/>
	</g>
	<g>
		<rect x="221.292" y="275.957" fill="#E0E1E0" width="33.243" height="3.404"/>
	</g>
	<g>
		<rect x="263.837" y="301.587" fill="#E0E1E0" width="24.002" height="3.404"/>
	</g>
	<g>
		<rect x="291.578" y="301.587" fill="#3A82C4" width="15.927" height="3.404"/>
	</g>
	<g>
		<rect x="324.118" y="404.485" fill="#3A82C4" width="15.927" height="3.404"/>
	</g>
	<g>
		<rect x="221.668" y="366.041" fill="#3A82C4" width="15.928" height="3.402"/>
	</g>
	<g>
		<rect x="310.652" y="301.587" fill="#E0E1E0" width="38.455" height="3.404"/>
	</g>
	<g>
		<rect x="221.668" y="353.132" fill="#E0E1E0" width="24.71" height="3.402"/>
	</g>
	<g>
		<rect x="288.065" y="378.855" fill="#E0E1E0" width="24.709" height="3.404"/>
	</g>
	<g>
		<rect x="380.364" y="404.485" fill="#E0E1E0" width="24.711" height="3.404"/>
	</g>
	<g>
		<rect x="256.114" y="378.855" fill="#E0E1E0" width="15.084" height="3.404"/>
	</g>
	<g>
		<rect x="221.668" y="378.855" fill="#3A82C4" width="29.887" height="3.404"/>
	</g>
	<g>
		<rect x="221.668" y="391.67" fill="#E0E1E0" width="16.484" height="3.404"/>
	</g>
	<g>
		<rect x="261.001" y="275.957" fill="#85BEE8" width="23.599" height="3.404"/>
	</g>
	<g>
		<rect x="261.001" y="314.402" fill="#3A82C4" width="23.599" height="3.404"/>
	</g>
	<g>
		<rect x="249.202" y="327.218" fill="#E0E1E0" width="10.083" height="3.403"/>
	</g>
	<g>
		<rect x="239.119" y="340.221" fill="#85BEE8" width="22.648" height="3.404"/>
	</g>
	<g>
		<rect x="265.19" y="340.221" fill="#3A82C4" width="31.267" height="3.404"/>
	</g>
	<g>
		<rect x="364.206" y="391.67" fill="#3A82C4" width="31.265" height="3.404"/>
	</g>
	<g>
		<rect x="221.668" y="327.312" fill="#3A82C4" width="23.6" height="3.403"/>
	</g>
	<g>
		<rect x="221.668" y="340.221" fill="#3A82C4" width="14.002" height="3.404"/>
	</g>
	<g>
		<rect x="264.039" y="327.312" fill="#F58764" width="13.21" height="3.403"/>
	</g>
	<g>
		<rect x="222.065" y="404.485" fill="#F58764" width="13.21" height="3.404"/>
	</g>
	<g>
		<rect x="221.575" y="301.587" fill="#85BEE8" width="23.599" height="3.404"/>
	</g>
	<g>
		<rect x="242.444" y="366.041" fill="#85BEE8" width="23.599" height="3.402"/>
	</g>
	<g>
		<rect x="242.735" y="391.67" fill="#85BEE8" width="23.599" height="3.404"/>
	</g>
	<g>
		<rect x="284.657" y="391.67" fill="#85BEE8" width="23.599" height="3.404"/>
	</g>
	<g>
		<rect x="221.575" y="314.402" fill="#85BEE8" width="33.64" height="3.404"/>
	</g>
	<g>
		<rect x="379.215" y="275.957" fill="#85BEE8" width="23.599" height="3.404"/>
	</g>
	<g>
		<rect x="295.146" y="404.485" fill="#85BEE8" width="23.599" height="3.404"/>
	</g>
	<g>
		<rect x="410.155" y="275.957" fill="#85BEE8" width="15.796" height="3.404"/>
	</g>
	<g>
		<rect x="463.601" y="288.772" fill="#85BEE8" width="15.797" height="3.403"/>
	</g>
	<g>
		<rect x="290.954" y="275.957" fill="#3A82C4" width="30.065" height="3.404"/>
	</g>
	<g>
		<rect x="410.155" y="404.485" fill="#3A82C4" width="30.065" height="3.404"/>
	</g>
	<g>
		<rect x="240.262" y="404.485" fill="#3A82C4" width="30.066" height="3.404"/>
	</g>
	<g>
		<rect x="408.101" y="288.772" fill="#3A82C4" width="30.065" height="3.403"/>
	</g>
	<g>
		<rect x="371.227" y="301.587" fill="#3A82C4" width="30.066" height="3.404"/>
	</g>
	<g>
		<rect x="345.101" y="404.485" fill="#3A82C4" width="30.065" height="3.404"/>
	</g>
	<g>
		<rect x="340.474" y="378.855" fill="#3A82C4" width="30.066" height="3.404"/>
	</g>
	<g>
		<rect x="275.921" y="378.855" fill="#F58764" width="6.481" height="3.404"/>
	</g>
	<g>
		
			<rect x="409.548" y="309.46" transform="matrix(0.9952 0.0979 -0.0979 0.9952 32.5086 -40.1651)" fill="#85BEE8" width="31.934" height="3.404"/>
	</g>
	<g>
		<rect x="343.257" y="275.957" fill="#F58764" width="30.066" height="3.404"/>
	</g>
	<g>
		<polygon fill="#3A82C4" points="347.703,330.146 301.136,309.382 302.527,306.275 349.092,327.038 		"/>
	</g>
	<g>
		<rect x="295.146" y="366.23" fill="#F58764" width="17.629" height="3.402"/>
	</g>
	<g>
		<rect x="326.579" y="275.957" fill="#E0E1E0" width="11.005" height="3.404"/>
	</g>
	<g>
		<rect x="290.954" y="314.402" fill="#E0E1E0" width="11.005" height="3.404"/>
	</g>
	<g>
		<rect x="445.417" y="288.772" fill="#E0E1E0" width="11.005" height="3.403"/>
	</g>
	<g>
		<rect x="221.292" y="288.772" fill="#3A82C4" width="17.217" height="3.403"/>
	</g>
	<g>
		<rect x="267.23" y="353.226" fill="#3A82C4" width="13.593" height="3.403"/>
	</g>
	<g>
		<rect x="242.735" y="288.772" fill="#3A82C4" width="5.56" height="3.403"/>
	</g>
	<g>
		<rect x="356.862" y="288.772" fill="#E0E1E0" width="45.951" height="3.403"/>
	</g>
	<g>
		<rect x="312.775" y="391.67" fill="#E0E1E0" width="45.95" height="3.404"/>
	</g>
	<g>
		<rect x="252.378" y="288.772" fill="#F58764" width="5.673" height="3.403"/>
	</g>
	<g>
		<rect x="337.584" y="288.772" fill="#3A82C4" width="15.034" height="3.403"/>
	</g>
	<g>
		<rect x="352.618" y="301.587" fill="#F58764" width="15.033" height="3.404"/>
	</g>
	<g>
		<rect x="319.063" y="378.855" fill="#F58764" width="15.032" height="3.404"/>
	</g>
	<g>
		<rect x="275.316" y="404.485" fill="#F58764" width="15.033" height="3.404"/>
	</g>
	<g>
		<rect x="301.618" y="288.772" fill="#3A82C4" width="31.986" height="3.403"/>
	</g>
	<g>
		<rect x="376.042" y="378.855" fill="#3A82C4" width="31.986" height="3.404"/>
	</g>
	<g>
		<rect x="271.846" y="366.23" fill="#3A82C4" width="18.687" height="3.402"/>
	</g>
	<g>
		<rect x="270.644" y="391.67" fill="#3A82C4" width="9.344" height="3.404"/>
	</g>
	<g>
		<rect x="286.075" y="288.772" fill="#85BEE8" width="11.004" height="3.403"/>
	</g>
	<g>
		<rect x="399.573" y="391.67" fill="#F58764" width="11.004" height="3.404"/>
	</g>
	<g>
		<rect x="249.032" y="301.587" fill="#F58764" width="11.004" height="3.404"/>
	</g>
	<g>
		<rect x="251.226" y="353.226" fill="#F58764" width="11.005" height="3.403"/>
	</g>
	<g>
		<rect x="262.703" y="288.772" fill="#3A82C4" width="19.175" height="3.403"/>
	</g>
	<g>
		<polygon fill="#85BEE8" points="221.292,366.971 137.774,366.971 137.774,305.605 138.908,305.605 138.908,365.838 
			221.292,365.838 		"/>
	</g>
	<g>
		<polygon fill="#85BEE8" points="390.478,303.289 389.343,303.289 389.343,222.069 450.408,222.069 450.408,168.853 
			451.544,168.853 451.544,223.203 390.478,223.203 		"/>
	</g>
	<g>
		<g>
			<g>
				<path fill="#333757" d="M217.079,417.765c-0.004-0.003-0.008-0.003-0.015-0.003C217.125,417.79,217.134,417.792,217.079,417.765
					z"/>
			</g>
		</g>
	</g>
	<g>
		<polygon fill="#6FAFE0" points="488.521,190.237 478.785,190.237 478.785,189.103 487.386,189.103 487.386,180.51 488.521,180.51 
					"/>
	</g>
	<g>
		<polygon fill="#6FAFE0" points="423.056,190.237 413.32,190.237 413.32,180.51 414.453,180.51 414.453,189.103 423.056,189.103 		
			"/>
	</g>
	<g>
		<polygon fill="#6FAFE0" points="414.459,124.777 413.323,124.777 413.323,115.041 423.052,115.041 423.052,116.175 
			414.459,116.175 		"/>
	</g>
	<g>
		<polygon fill="#6FAFE0" points="488.521,124.772 487.386,124.772 487.386,116.18 478.785,116.18 478.785,115.044 488.521,115.044 
					"/>
	</g>
	<g>
		<rect x="487.386" y="139.31" fill="#6FAFE0" width="1.135" height="26.662"/>
	</g>
	<g>
		<rect x="413.32" y="139.31" fill="#6FAFE0" width="1.133" height="26.662"/>
	</g>
	<g>
		<path fill="#85BEE8" d="M138.34,306.173c-2.297,0-4.167-1.869-4.167-4.167c0-2.297,1.869-4.167,4.167-4.167
			c2.298,0,4.167,1.87,4.167,4.167C142.507,304.304,140.638,306.173,138.34,306.173z M138.34,298.975
			c-1.671,0-3.032,1.36-3.032,3.031c0,1.673,1.361,3.032,3.032,3.032c1.673,0,3.032-1.359,3.032-3.032
			C141.372,300.334,140.013,298.975,138.34,298.975z"/>
	</g>
	<g>
		<path fill="#85BEE8" d="M450.975,169.42c-2.298,0-4.167-1.87-4.167-4.167c0-2.298,1.869-4.167,4.167-4.167
			c2.297,0,4.167,1.87,4.167,4.167C455.142,167.55,453.271,169.42,450.975,169.42z M450.975,162.222
			c-1.672,0-3.031,1.36-3.031,3.032c0,1.671,1.359,3.032,3.031,3.032c1.673,0,3.032-1.361,3.032-3.032
			C454.007,163.582,452.647,162.222,450.975,162.222z"/>
	</g>
	<g>
		<path fill="#A7D1F0" d="M167.587,149.276h-28.604v-28.604h28.604V149.276z M140.119,148.141h26.334v-26.333h-26.334V148.141z"/>
	</g>
	<g>
		<rect x="152.718" y="128.469" fill="#A7D1F0" width="1.135" height="13.331"/>
	</g>
	<g>
		<rect x="146.621" y="134.567" fill="#A7D1F0" width="13.331" height="1.135"/>
	</g>
	<g>
		<path fill="#A7D1F0" d="M603.46,183.779h-40.884v-29.187h40.884V183.779z M563.71,182.644h38.615v-26.917H563.71V182.644z"/>
	</g>
	<g>
		<polygon fill="#A7D1F0" points="583.018,172.27 562.781,155.598 563.504,154.723 583.018,170.801 602.531,154.723 
			603.252,155.598 		"/>
	</g>
	<g>
		
			<rect x="584.894" y="174.909" transform="matrix(0.6882 0.7255 -0.7255 0.6882 313.0072 -377.3756)" fill="#A7D1F0" width="21.324" height="1.135"/>
	</g>
	<g>
		
			<rect x="569.912" y="164.814" transform="matrix(0.7262 0.6875 -0.6875 0.7262 276.833 -344.1494)" fill="#A7D1F0" width="1.135" height="21.323"/>
	</g>
	<g>
		<path fill="#A7D1F0" d="M103.415,387.165l-0.425-1.113c-0.382-0.049-0.757-0.136-1.12-0.256l-0.868,0.814l-2.518-1.793
			l0.484-1.087c-0.233-0.304-0.437-0.629-0.609-0.973l-1.19-0.038l-0.514-3.051l1.112-0.424c0.049-0.381,0.136-0.756,0.256-1.118
			l-0.814-0.869l1.793-2.518l1.086,0.485c0.304-0.234,0.629-0.438,0.973-0.609l0.038-1.19l3.049-0.514l0.425,1.111
			c0.382,0.051,0.756,0.136,1.12,0.256l0.868-0.813l2.519,1.792l-0.485,1.087c0.233,0.304,0.438,0.629,0.609,0.974l1.19,0.036
			l0.514,3.049l-1.112,0.428c-0.05,0.38-0.136,0.754-0.257,1.118l0.815,0.867l-1.792,2.52l-1.087-0.485
			c-0.303,0.234-0.629,0.438-0.973,0.609l-0.039,1.189L103.415,387.165z M101.67,384.815l0.249,0.095
			c0.452,0.173,0.925,0.282,1.411,0.324l0.266,0.023l0.364,0.952l1.675-0.283l0.033-1.02l0.243-0.108
			c0.444-0.197,0.857-0.456,1.227-0.769l0.204-0.171l0.931,0.417l0.985-1.384l-0.698-0.744l0.095-0.249
			c0.173-0.451,0.282-0.927,0.323-1.409l0.023-0.266l0.954-0.365l-0.282-1.674l-1.021-0.032l-0.108-0.243
			c-0.198-0.444-0.457-0.859-0.767-1.228l-0.171-0.204l0.414-0.932l-1.384-0.983l-0.743,0.698l-0.249-0.096
			c-0.452-0.173-0.926-0.282-1.41-0.323l-0.265-0.024l-0.365-0.951l-1.675,0.281l-0.033,1.02l-0.244,0.109
			c-0.444,0.198-0.855,0.455-1.225,0.768l-0.204,0.171l-0.932-0.415l-0.984,1.384l0.698,0.743l-0.095,0.248
			c-0.173,0.453-0.282,0.927-0.323,1.411l-0.023,0.264l-0.954,0.367l0.282,1.675l1.02,0.03l0.109,0.243
			c0.198,0.446,0.456,0.858,0.768,1.227l0.172,0.204l-0.416,0.932l1.383,0.983L101.67,384.815z M103.775,383.4
			c-0.692,0-1.367-0.215-1.943-0.623h0c-1.51-1.074-1.865-3.179-0.79-4.688c1.075-1.511,3.178-1.866,4.688-0.79
			c1.51,1.074,1.864,3.179,0.79,4.688c-0.521,0.731-1.295,1.217-2.18,1.365C104.151,383.385,103.962,383.4,103.775,383.4z
			 M103.785,377.527c-0.786,0-1.56,0.367-2.049,1.055c-0.389,0.547-0.542,1.212-0.43,1.873c0.112,0.661,0.474,1.24,1.02,1.628h0.001
			c0.545,0.389,1.212,0.542,1.872,0.432c0.661-0.112,1.24-0.474,1.628-1.02c0.803-1.131,0.539-2.7-0.59-3.503
			C104.797,377.679,104.289,377.527,103.785,377.527z"/>
	</g>
	<g>
		<path fill="#A7D1F0" d="M79.795,390.722l-0.95-2.482c-1.019-0.114-2.019-0.343-2.982-0.684l-1.936,1.818l-5.259-3.742l1.083-2.426
			c-0.636-0.797-1.18-1.667-1.622-2.592l-2.656-0.084l-1.072-6.365l2.481-0.949c0.114-1.019,0.344-2.018,0.684-2.981l-1.818-1.936
			l3.743-5.258l2.425,1.082c0.797-0.637,1.667-1.18,2.593-1.621l0.084-2.657l6.364-1.073l0.949,2.482
			c1.019,0.114,2.019,0.343,2.981,0.684l1.936-1.818l5.258,3.742L91,366.287c0.636,0.797,1.18,1.668,1.622,2.592l2.655,0.086
			l1.073,6.363l-2.481,0.949c-0.115,1.02-0.344,2.018-0.684,2.982l1.818,1.935l-3.743,5.26l-2.425-1.084
			c-0.797,0.637-1.667,1.181-2.592,1.623l-0.084,2.655L79.795,390.722z M75.601,386.247l0.332,0.125
			c1.077,0.414,2.208,0.673,3.364,0.771l0.355,0.031l0.87,2.273l4.532-0.765l0.077-2.433l0.326-0.145
			c1.059-0.472,2.043-1.087,2.926-1.83l0.271-0.229l2.221,0.991l2.665-3.746l-1.664-1.771l0.127-0.332
			c0.412-1.076,0.672-2.209,0.771-3.366l0.03-0.353l2.274-0.869l-0.764-4.532l-2.432-0.077l-0.145-0.326
			c-0.472-1.06-1.088-2.043-1.831-2.926l-0.229-0.271l0.992-2.221l-3.746-2.665l-1.772,1.663l-0.332-0.125
			c-1.077-0.414-2.209-0.673-3.365-0.771l-0.354-0.031l-0.87-2.272l-4.531,0.764l-0.078,2.433l-0.324,0.145
			c-1.06,0.474-2.044,1.087-2.926,1.832l-0.272,0.228l-2.22-0.991l-2.665,3.744l1.664,1.774l-0.127,0.332
			c-0.413,1.075-0.672,2.208-0.771,3.364l-0.031,0.354l-2.272,0.868l0.763,4.532l2.433,0.079l0.145,0.324
			c0.473,1.06,1.089,2.044,1.831,2.928l0.229,0.27l-0.992,2.221l3.745,2.665L75.601,386.247z M80.365,382.085
			c-1.472,0-2.958-0.44-4.246-1.358c-1.598-1.136-2.657-2.826-2.983-4.761c-0.326-1.935,0.121-3.878,1.258-5.475
			c2.348-3.298,6.939-4.073,10.237-1.725c3.298,2.347,4.072,6.938,1.726,10.237C84.926,381.012,82.663,382.085,80.365,382.085z
			 M80.388,368.54c-0.346,0-0.695,0.028-1.043,0.087c-1.635,0.274-3.064,1.172-4.026,2.521c-0.961,1.351-1.338,2.995-1.063,4.63
			c0.275,1.633,1.171,3.065,2.521,4.024c2.789,1.984,6.671,1.33,8.655-1.458c0.961-1.351,1.339-2.993,1.063-4.628
			s-1.171-3.065-2.521-4.026C82.911,368.934,81.667,368.54,80.388,368.54z"/>
	</g>
	<g>
		<g>
			<g>
				<path fill="#85BEE8" d="M322.573,204.379c-11.672,0-21.169-9.496-21.169-21.168h1.135c0,11.046,8.987,20.033,20.034,20.033
					c11.046,0,20.033-8.986,20.033-20.033c0-11.046-8.987-20.032-20.033-20.032v-1.136c11.671,0,21.167,9.496,21.167,21.168
					S334.244,204.379,322.573,204.379z M322.573,201.436c-10.049,0-18.225-8.175-18.225-18.225c0-10.048,8.176-18.225,18.225-18.225
					s18.225,8.176,18.225,18.225h-1.134c0-9.423-7.667-17.09-17.09-17.09c-9.424,0-17.091,7.667-17.091,17.09
					c0,9.424,7.667,17.09,17.091,17.09V201.436z"/>
			</g>
		</g>
	</g>
	<g>
		<polygon fill="#85BEE8" points="319.979,190.224 312.345,182.589 313.146,181.788 319.979,188.619 331.998,176.601 
			332.801,177.402 		"/>
	</g>
	<g>
		<g>
			<g>
				<g>
					<g>
						<g>
							<path fill="#5D554E" d="M497.547,476.918c0,0,1.034,4.061,1.174,4.672c0.142,0.613,6.508-1.071,6.508-1.071l-0.005-4.967
								C505.224,475.552,498.295,476.25,497.547,476.918z"/>
						</g>
					</g>
				</g>
			</g>
		</g>
		<g>
			<g>
				<g>
					<g>
						<g>
							<path fill="#3D4246" d="M498.596,481.074c0,0-1.782,2.706-3.648,4.003s-9.069,2.976-10.122,4.224
								c-0.76,0.9-1.815,4.311,9.744,2.754c8.21-1.105,12.263-0.827,13-2.258c0.738-1.432-2.342-9.722-2.342-9.722
								S503.472,481.031,498.596,481.074z"/>
						</g>
					</g>
				</g>
			</g>
		</g>
		<g>
			<g>
				<g>
					<g>
						<g>
							<g>
								<polygon fill="#F0C140" points="496.197,592.482 473.129,357.425 476.036,357.144 499.105,592.201 								"/>
							</g>
						</g>
					</g>
				</g>
			</g>
			<g>
				<g>
					<g>
						<g>
							<g>
								
									<rect x="415.055" y="468.788" transform="matrix(0.0977 0.9952 -0.9952 0.0977 949.0773 -106.2798)" fill="#F0C140" width="236.188" height="2.923"/>
							</g>
						</g>
					</g>
				</g>
			</g>
			<g>
				<g>
					<g>
						<g>
							<g>
								<g>
									
										<rect x="497.169" y="336.789" transform="matrix(0.0969 0.9953 -0.9953 0.0969 809.0202 -170.7991)" fill="#F0C140" width="2.922" height="47.252"/>
								</g>
							</g>
						</g>
					</g>
				</g>
				<g>
					<g>
						<g>
							<g>
								<g>
									
										<rect x="499.291" y="358.659" transform="matrix(0.0962 0.9954 -0.9954 0.0962 833.0771 -152.93)" fill="#F0C140" width="2.923" height="47.253"/>
								</g>
							</g>
						</g>
					</g>
				</g>
				<g>
					<g>
						<g>
							<g>
								<g>
									
										<rect x="501.413" y="380.528" transform="matrix(0.0963 0.9954 -0.9954 0.0963 856.7448 -135.2884)" fill="#F0C140" width="2.922" height="47.252"/>
								</g>
							</g>
						</g>
					</g>
				</g>
				<g>
					<g>
						<g>
							<g>
								<g>
									
										<rect x="503.537" y="402.398" transform="matrix(0.0963 0.9954 -0.9954 0.0963 880.3965 -117.6613)" fill="#F0C140" width="2.92" height="47.252"/>
								</g>
							</g>
						</g>
					</g>
				</g>
				<g>
					<g>
						<g>
							<g>
								<g>
									
										<rect x="505.658" y="424.269" transform="matrix(0.0966 0.9953 -0.9953 0.0966 903.9547 -100.1033)" fill="#F0C140" width="2.923" height="47.252"/>
								</g>
							</g>
						</g>
					</g>
				</g>
				<g>
					<g>
						<g>
							<g>
								<g>
									
										<rect x="507.781" y="446.138" transform="matrix(0.0963 0.9954 -0.9954 0.0963 927.7859 -82.3466)" fill="#F0C140" width="2.921" height="47.251"/>
								</g>
							</g>
						</g>
					</g>
				</g>
				<g>
					<g>
						<g>
							<g>
								<g>
									
										<rect x="509.904" y="468.008" transform="matrix(0.097 0.9953 -0.9953 0.097 951.1036 -64.9875)" fill="#F0C140" width="2.921" height="47.253"/>
								</g>
							</g>
						</g>
					</g>
				</g>
				<g>
					<g>
						<g>
							<g>
								<g>
									
										<rect x="512.025" y="489.878" transform="matrix(0.0966 0.9953 -0.9953 0.0966 975.0099 -47.1666)" fill="#F0C140" width="2.923" height="47.252"/>
								</g>
							</g>
						</g>
					</g>
				</g>
				<g>
					<g>
						<g>
							<g>
								<g>
									
										<rect x="514.149" y="511.746" transform="matrix(0.0966 0.9953 -0.9953 0.0966 998.6575 -29.5533)" fill="#F0C140" width="2.921" height="47.253"/>
								</g>
							</g>
						</g>
					</g>
				</g>
			</g>
			<g>
				<g>
					<g>
						<g>
							<g>
								<g>
									
										<rect x="516.271" y="533.618" transform="matrix(0.0973 0.9953 -0.9953 0.0973 1021.9644 -12.2443)" fill="#F0C140" width="2.921" height="47.252"/>
								</g>
							</g>
						</g>
					</g>
				</g>
				<g>
					<g>
						<g>
							<g>
								<g>
									
										<rect x="518.393" y="555.487" transform="matrix(0.0963 0.9954 -0.9954 0.0963 1046.2174 5.9109)" fill="#F0C140" width="2.921" height="47.252"/>
								</g>
							</g>
						</g>
					</g>
				</g>
			</g>
		</g>
		<g>
			<g>
				<g>
					<g>
						<g>
							<path fill="#3D4246" d="M489.694,391.429c0,0-4.633,17.202-5.855,23.353c-1.063,5.358-3.204,19.628-3.509,23.02
								c-0.304,3.394,13.676,36.235,15.131,42.167l12.735-2.045c0,0-13.437-34.181-9.932-41.775
								c5.214-11.297,5.893-10.956,9.999-20.261c4.105-9.307,13.51-9.526,16.035-26.792
								C524.299,389.095,493.112,385.953,489.694,391.429z"/>
						</g>
					</g>
				</g>
			</g>
		</g>
		<g>
			<g>
				<g>
					<g>
						<g>
							<path fill="#EFA986" d="M512.342,307.844c0,0-8.458-3.159-12.357,3.279c-3.899,6.438-3.522,19.327,0.74,20.911
								c4.263,1.585,10.667,0.757,12.849-3.272c2.185-4.027,4.153-9.852,4.058-13.744
								C517.537,311.126,514.563,308.968,512.342,307.844z"/>
						</g>
					</g>
				</g>
			</g>
		</g>
		<g>
			<g>
				<g>
					<g>
						<g>
							<path fill="#EFA986" d="M502.144,331.638c0,0,0.342,2.218-0.223,3.31c-0.566,1.091,10.637,1.121,10.637,1.121
								s0.91-5.94,2.636-10.958C516.916,320.091,502.144,331.638,502.144,331.638z"/>
						</g>
					</g>
				</g>
			</g>
		</g>
		<g>
			<g>
				<g>
					<g>
						<g>
							<path fill="#3B4048" d="M515.193,325.11c0,0-0.774,1.275-3.93,0.781c-3.157-0.496-7.008-4.694-8.324-5.155
								c-1.317-0.461-1.331-1.235-1.331-1.235l-0.826,1.205l-1.398,0.088c0,0,1.276-3.756-0.648-5.288
								c-1.927-1.532,1.998-12.158,12.121-8.619c0,0,7.773,2.142,7.49,6.563C518.063,317.871,516.932,322.907,515.193,325.11z"/>
						</g>
					</g>
				</g>
			</g>
		</g>
		<g>
			<g>
				<g>
					<g>
						<g>
							<path fill="#EFA986" d="M501.818,317.893c0.176-0.742,2.063-2.861,2.785-0.593c0.722,2.27-1.092,5.322-2.103,5.061
								C501.49,322.1,501.369,319.772,501.818,317.893z"/>
						</g>
					</g>
				</g>
			</g>
		</g>
		<g>
			<g>
				<g>
					<g>
						<path fill="#6182C2" d="M534.074,363.975c-0.093,1.11-1.359,2.311-2.222,2.904c-0.555,0.379-1.218,0.608-1.93,0.632
							l-0.502,0.018h-0.001l-8.789,0.301c0,0-6.533-21.118,5.724-29.172C526.732,338.695,534.926,353.797,534.074,363.975z"/>
					</g>
				</g>
			</g>
		</g>
		<g>
			<g>
				<g>
					<g>
						<g>
							<path fill="#3D4246" d="M507.569,489.797c-0.739,1.432-4.79,1.153-13.001,2.257c-2.245,0.303-4.014,0.419-5.399,0.399
								l-0.479-4.939c2.402-0.835,5.195-1.697,6.258-2.437c1.866-1.297,3.648-4.003,3.648-4.003
								c4.876-0.042,6.633-0.999,6.633-0.999S508.308,488.365,507.569,489.797z"/>
						</g>
					</g>
				</g>
			</g>
		</g>
		<g>
			<g>
				<g>
					<g>
						<path fill="#FFD256" d="M502.139,334.304c0,0,6.895-1.604,10.782-0.292l0.587,0.543c0,0,1.181,2.265-3.266,2.46
							C505.795,337.209,498.804,337.532,502.139,334.304z"/>
					</g>
				</g>
			</g>
		</g>
		<g>
			<g>
				<g>
					<g>
						<g>
							<path fill="#5D554E" d="M529.088,495.909c0,0,1.033,4.06,1.174,4.672c0.142,0.609,6.507-1.073,6.507-1.073l-0.005-4.967
								C536.764,494.541,529.835,495.239,529.088,495.909z"/>
						</g>
					</g>
				</g>
			</g>
		</g>
		<g>
			<g>
				<g>
					<g>
						<g>
							<path fill="#3D4246" d="M524.299,389.095c0,0,2.32,9.576,3.008,19.16c0.635,8.859,1.792,18.577,2.71,27.844
								c1.024,10.328,3.947,27.026,4.101,32.552c0.152,5.525,4.803,29.674,4.803,29.674l-11.896,1.366c0,0-7.73-42.675-9.556-47.037
								c-1.826-4.36-10.877-35.458-11.182-38.948C505.981,410.217,524.299,389.095,524.299,389.095z"/>
						</g>
					</g>
				</g>
			</g>
		</g>
		<g>
			<g>
				<g>
					<g>
						<g>
							<path fill="#3D4246" d="M530.137,500.063c0,0-1.783,2.704-3.648,4.003c-1.867,1.297-9.069,2.976-10.122,4.224
								c-0.759,0.9-1.814,4.311,9.743,2.753c8.211-1.106,12.264-0.826,13.002-2.258c0.737-1.431-2.343-9.722-2.343-9.722
								S535.013,500.02,530.137,500.063z"/>
						</g>
					</g>
				</g>
			</g>
		</g>
		<g>
			<g>
				<g>
					<g>
						<path fill="#6182C2" d="M487.287,412.916c-1.013-0.146,2.514-30.35,2.244-32.243c-0.18-1.264-0.15-11.079-0.077-17.198
							l-1.104-6.192c-0.615-0.447-1.438-0.965-2.425-1.531c-1.534-0.887-3.457-1.899-5.596-2.967
							c0.249-1.463,0.421-2.614,0.487-3.288c0.534-5.439,4.188-8.322,6.259-9.536c0.845-0.494,1.427-0.711,1.427-0.711
							c0.787-0.334,1.56-0.658,2.31-0.966c4.99-2.053,11.326-3.979,11.326-3.979h10.179c0,0,7.749,1.548,12.368,3.438
							c0.592,0.243,1.146,0.552,1.669,0.915l-1.384,29.022c-0.001,0.006-0.001,0.012-0.002,0.019
							c-0.002,0.009-0.005,0.022-0.006,0.037c-0.623,4.085-1.278,8.9-1.497,12.277c-0.09,1.378,1.486,8.782,2.31,15.578
							l2.879,16.263C528.654,411.854,526.991,418.593,487.287,412.916z"/>
					</g>
				</g>
			</g>
		</g>
		<g>
			<g>
				<g>
					<g>
						<g>
							<path fill="#EFA986" d="M435.315,318.792c0,0,0.601,0.745,1.021,0.942c0,0,0.796,0.3,1.347,0.547
								c0.175,0.079,0.326,0.152,0.418,0.209c0.387,0.239,1.162,0.878,2.251,1.191c1.087,0.313,6.005,1.433,6.005,1.433l1.144-2.918
								l0.819-2.357c0,0-4.55-5.898-5.531-6.306c-0.096-0.04-0.191-0.075-0.285-0.102c-0.862-0.266-1.616-0.102-2.086-0.189
								c-0.172-0.031-1.905-0.226-2.28,0.136c-0.521,0.501-0.68,1.061-0.59,1.548c0,0-0.979,1.028-1.048,1.981
								c0,0-0.934,0.919-0.684,2.129C435.816,317.037,434.975,318.076,435.315,318.792z"/>
						</g>
					</g>
				</g>
			</g>
		</g>
		<g>
			<g>
				<g>
					<g>
						<g>
							<path fill="#6182C2" d="M488.023,357.052c-1.137-0.732-2.607-1.723-7.693-4.268c-9.471-4.738-21.163-13.328-23.386-14.568
								c-3.419-1.908-14.219-15.102-14.219-15.102c0.558-1.988,5.677-5.976,5.677-5.976s16.372,15.506,19.95,17.415
								c3.077,1.641,18.272,3.299,22.46,3.73c0.681,0.07,1.069,0.108,1.069,0.108C496.255,344.354,490.463,358.622,488.023,357.052z
								"/>
						</g>
					</g>
				</g>
			</g>
		</g>
	</g>
	<g>
		<g>
			<path fill="#6B76B8" d="M178.557,244.508c0,0-2.904-5.332-4.556-7.25c-1.653-1.919-7.143-3.358-6.396-5.809
				c0.747-2.452,8.101-1.386,10.126,1.013c2.025,2.398,8.208,3.25,8.421,4.263s-2.146,6.556-3.472,7.461
				C181.355,245.093,178.557,244.508,178.557,244.508z"/>
			<path fill="#555E95" d="M166.212,249.023c0,0-4.732-3.751-7.009-4.856c-2.279-1.105-7.888-0.246-8.177-2.792
				c-0.289-2.546,6.885-4.489,9.695-3.092c2.812,1.397,8.824-0.275,9.422,0.57c0.598,0.844,0.632,6.869-0.224,8.226
				S166.212,249.023,166.212,249.023z"/>
			<path fill="#EFA986" d="M176.719,258.79c0,0,2.065-14.125,1.972-16.576c-0.027-0.7,4.25-0.44,4.051,0.906
				c-0.436,2.93,1.539,14.284,1.195,16.362C183.594,261.562,176.542,260.098,176.719,258.79z"/>
			<path fill="#EFA986" d="M170.247,262.849c0,0-3.871-13.714-4.771-15.996c-0.402-1.015,3.542-2.587,4.077-0.776
				c0.839,2.841,7.085,12.498,7.595,14.542C177.657,262.663,170.605,264.121,170.247,262.849z"/>
			<path fill="#397ABE" d="M172.934,272.38c0,0-4.157-14.016-4.796-15.509l6.555-4.051c0,0,3.038,8.954,3.464,11.192
				C178.584,266.25,172.934,272.38,172.934,272.38z"/>
			<path fill="#2F334D" d="M288.974,235.346c0,0-6.331,1.6-9.342,6.387c-3.013,4.788-5.616,10.301-11.275,12.802
				c-5.659,2.502-5.696,8.948-5.255,9.941c0.44,0.995,17.827,20.538,21.621,21.294c3.793,0.754,10.896,0.229,10.136-4.792
				c-0.76-5.022-8.204-15.825-4.025-21.274c4.178-5.45,5.231-10.47,5.231-10.47L288.974,235.346z"/>
			<path fill="#EFA986" d="M287.87,258.719c0,0-0.186-0.062-0.495-0.09c-0.359-0.033-0.884-0.023-1.481,0.178
				c-0.147,0.05-0.346,0.151-0.579,0.288c-1.504,0.887-5.064,3.292-5.545,3.351c-0.555,0.065-0.086-8.237-0.086-8.237
				s1.896-3.354,2.134-5.561C282.055,246.439,287.87,258.719,287.87,258.719z"/>
			<path fill="#397ABE" d="M243.339,267.396c0,0-6.955-4.876-15.109-3.357c-8.154,1.519-9.034,5.331-11.832,5.503
				c-2.798,0.173-12.151-0.626-19.826,1.612c-7.674,2.239-14.15,2.478-15.029,1.838c-0.879-0.639,4.796-13.431,4.796-15.189
				l-9.513-2.478c0,0-2.718,11.352-3.784,13.911c-1.14,2.735-3.331,7.887-0.213,12.364c3.118,4.477,11.832,2.459,17.108,3.361
				c5.276,0.902,28.893,0.324,33.017,0.103c4.477-0.24,17.988-0.879,17.988-0.879L243.339,267.396z"/>
			<path fill="#EFA986" d="M300.462,242.121c0,0,0.444,6.871-1.082,8.932c-0.61,0.824-1.025,1.273-1.302,1.515
				c-0.391,0.34-0.695,0.77-0.869,1.259c-0.472,1.322-0.762,3.181-1.137,3.579c-0.409,0.433-1.596-0.668-2.026-0.671
				c-0.429-0.002-4.615,3.61-5.615,2.871c-1.001-0.74-7.107-6.935-6.594-11.183s2.387-10.59,9.262-10.551
				C297.975,237.909,299.938,240.412,300.462,242.121z"/>
			<path fill="#FFC957" d="M279.688,274.912c-0.132,0.282-2.66,4.318-5.43,6.662c-1.149,0.972-2.339,1.653-3.417,1.653
				c-0.33,0-0.651,0.004-0.963,0.013c-3.178,0.085-5.62,0.572-9.91,0.787c-4.458,0.223-15.269-0.4-15.589-0.4
				s-3.438,0.56-3.438,0.56c-1.12-1.359,1.838-16.709,2.398-16.789c0.559-0.08,4.157,1.28,7.595,0.719
				c3.438-0.559,4.796-0.878,9.912-6.875c5.117-5.996,10.233-7.515,12.392-7.036c2.158,0.48,6.449,0,6.449,0
				S279.873,274.512,279.688,274.912z"/>
			<path fill="#2F334D" d="M297.575,247.041c0,0,1.28,3.32,1.959,3.777c0,0,2.473-2.615,0.885-9.068
				c-1.588-6.452-7.578-7.059-11.444-6.404c-4.814,0.815-9.66,17.103-9.411,18.689c0.25,1.586,5.643-8.417,10.369-7.612
				S294.696,247.49,297.575,247.041z"/>
			<path fill="#A77861" d="M287.375,258.628c-0.359-0.033-0.884-0.023-1.481,0.178c-0.147,0.05-0.346,0.151-0.579,0.288
				c-1.105-1.724-2.13-5.812-2.163-5.95C283.889,255.382,287.375,258.628,287.375,258.628z"/>
			<path fill="#C2983F" d="M274.258,281.573c-1.149,0.972-2.339,1.653-3.417,1.653c-0.33,0-0.651,0.004-0.963,0.013l1.308-12.724
				L274.258,281.573z"/>
			<path fill="#EFA986" d="M299.133,303.484l-3.069,2.792c-2.646-1.418-9.282-6.192-10.558-7.281
				c-1.339-1.14-10.265-8.605-11.49-10.308c-1.236-1.701-2.802-19.288-2.643-20.093c0.158-0.795,7.76-1.203,8.622,0.658
				c0,0,0.398,10.03,0.602,11.708c0.193,1.68,0.836,3.196,1.988,4.608c1.594,1.955,4.987,6.495,8.272,10.165
				C291.641,296.608,298.12,302.612,299.133,303.484z"/>
			<path fill="#FFC957" d="M280.62,269.476c0,0,0.479-13.356-3.864-13.191c-5.493,0.209-6.316,6.928-5.57,14.23
				C271.186,270.515,279.394,270.595,280.62,269.476z"/>
			<path fill="#EFA986" d="M297.655,302.177c0,0,0.409,0.643,1,0.843c1.023,0.345,2.536-0.32,3.281,1.02
				c0.746,1.339-2.854,4.685-3.821,4.888c-0.968,0.203-2.518-1.303-3.729-4.272C293.174,301.686,297.655,302.177,297.655,302.177z"
				/>
			<path fill="#EFA986" d="M301.62,303.623c0,0,1.837,1.398,3.694,3.193c1.63,1.575,3.287,3.642,2.868,4.032
				c-0.57,0.533-1.682-1.241-3.401-2.7c-1.583-1.342-1.493-0.825-1.493-0.825s-0.018-0.148,1.426,1.636
				c1.552,1.918,3.156,4.195,2.678,4.524c-0.3,0.206-0.314,0.261-0.992-0.349c0.315,0.43,0.242,0.573,0.074,0.713
				c-0.866,0.726-3.586-1.757-4.666-2.744c0.825,0.763,1.349,1.406,0.512,1.504c-0.958,0.114-4.648-3.563-6.095-4.759
				C294.646,306.544,301.62,303.623,301.62,303.623z"/>
		</g>
		<path fill="#E0E1E0" d="M246.463,268.008c0,0-1.465,10.511-0.743,15.681c0,0,0.765,0.568,2.286,0.109
			c0,0,0.379-11.473,1.231-15.547C249.238,268.251,248.77,267.897,246.463,268.008z"/>
	</g>
	<g>
		<rect x="246.812" y="78.813" fill="#E0E1E0" width="1.135" height="197.145"/>
	</g>
	<g>
		<g>
			<path fill="#5D554E" d="M150.396,563.844c0,0-0.575,4.032-0.647,4.64c-0.072,0.606-6.403-0.357-6.403-0.357l-0.513-4.803
				C142.833,563.323,149.604,563.273,150.396,563.844z"/>
		</g>
		<g>
			<path fill="#3D4246" d="M149.816,567.97c0,0,2.006,2.431,3.946,3.489c1.94,1.06,4.99,1.48,6.137,2.576
				c0.829,0.791,3.017,4.201-5.041,4.131c-8.059-0.067-11.944,0.482-12.808-0.825c-0.863-1.306,1.249-9.645,1.249-9.645
				S145.208,568.391,149.816,567.97z"/>
		</g>
		<g>
			<path fill="#5D554E" d="M195.763,563.844c0,0-0.576,4.032-0.647,4.64c-0.072,0.606-6.404-0.357-6.404-0.357l-0.512-4.803
				C188.2,563.323,194.972,563.273,195.763,563.844z"/>
		</g>
		<g>
			<path fill="#3D4246" d="M195.183,567.97c0,0,2.006,2.431,3.946,3.489c1.94,1.06,9.081,1.93,10.228,3.027
				c0.829,0.791,2.206,3.979-9.132,3.68c-8.056-0.212-11.943,0.482-12.808-0.825c-0.863-1.306,1.249-9.645,1.249-9.645
				S190.464,568.437,195.183,567.97z"/>
		</g>
		<g>
			<path fill="#34383C" d="M152.645,459.701c0,0-3.37,10.01-2.926,18.637c0.444,8.626-1.743,18.064-2.636,27.076
				c-0.997,10.045-5.074,33.829-5.222,39.201c-0.148,5.375,0.633,22.535,0.633,22.535l8.161,0.188c0,0,6.856-41.578,8.631-45.82
				s10.58-34.487,10.875-37.881C170.458,480.244,152.645,459.701,152.645,459.701z"/>
		</g>
		<g>
			<path fill="#3D4246" d="M186.958,461.483c0,0,4.483,23.642,5.076,28.922c0.591,5.279,0.985,25.55,1.282,28.852
				c0.295,3.299,1.973,43.179,3.551,48.082h-10.435c0,0-8.011-28.991-8.011-42.71c0-13.718-6.188-29.821-10.182-38.871
				c-3.995-9.051-13.138-9.266-15.594-26.057C152.645,459.701,183.633,456.156,186.958,461.483z"/>
		</g>
		<g>
			<path fill="#EFA986" d="M165.751,380.683c0,0,8.226-3.075,12.018,3.188c3.792,6.262,3.427,18.796-0.719,20.337
				c-4.146,1.542-10.374,0.737-12.497-3.181c-2.123-3.918-4.039-9.582-3.947-13.367
				C160.698,383.874,163.592,381.773,165.751,380.683z"/>
		</g>
		<g>
			<path fill="#EFA986" d="M175.67,403.823c0,0-0.333,2.155,0.216,3.219c0.55,1.061-10.346,1.089-10.346,1.089
				s-0.884-5.777-2.561-10.657C161.303,392.593,175.67,403.823,175.67,403.823z"/>
		</g>
		<g>
			<path fill="#FDCDA3" d="M162.979,397.474c0,0,0.753,1.24,3.821,0.76c3.069-0.482,6.814-4.565,8.096-5.014
				s1.294-1.202,1.294-1.202l0.802,1.173l1.362,0.085c0,0-1.242-3.653,0.631-5.143c1.874-1.489-1.944-11.823-11.788-8.382
				c0,0-7.561,2.083-7.286,6.383C160.188,390.434,161.288,395.332,162.979,397.474z"/>
		</g>
		<g>
			<path fill="#E2D2CA" d="M176.534,406.914c0,0-0.035-2.03-0.955-2.224c-0.919-0.196-10.153-1.083-11.282-0.639v2.363
				C164.297,406.415,166.473,407.753,176.534,406.914z"/>
		</g>
		<g>
			<path fill="#EFA986" d="M175.987,390.454c-0.172-0.722-2.005-2.782-2.708-0.575c-0.702,2.205,1.062,5.174,2.045,4.921
				C176.306,394.546,176.424,392.281,175.987,390.454z"/>
		</g>
		<g>
			<path fill="#4A5055" d="M176.534,406.914c0,0,5.062,1.82,10.924,4.31c0,0,6.745,2.519,7.475,9.966
				c0.388,3.954,4.597,24.938,5.386,26.712c0.789,1.775,10.124,30.297,10.452,30.888c0.33,0.591-7.618,3.89-8.144,3.627
				s-9.038-26.013-9.893-27.921c0,0-4.899-15.438-5.031-17.74c0,0-0.142,6.561-0.403,8.401c-0.264,1.842,4.357,37.594,4.225,38.58
				c-0.131,0.987-20.998,2.239-29.348,1.318c-8.352-0.921-15.091-2.843-15.091-2.843s6.572-28.215,6.37-31.341
				c-0.439-6.816-2.717-19.654-2.717-19.654l-6.809,12.838l8.716,22.424l-1.997,6.815c0,0-16.196-24.476-16.723-26.712
				c-0.526-2.235,0.794-5.083,1.649-6.925c0.854-1.84,6.47-15.854,7.785-17.827c1.315-1.974,3.537-9.872,8.909-12.071
				c4.491-1.838,12.028-3.344,12.028-3.344L176.534,406.914z"/>
		</g>
		<g>
			
				<rect x="183.64" y="459.773" transform="matrix(-0.9687 0.2484 -0.2484 -0.9687 517.9147 881.6797)" fill="#D7D6D6" width="39.39" height="27.48"/>
		</g>
		<g>
			<path fill="#C98462" d="M214.094,484.61c0,0,1.089,1.763,1.488,2.265c0.398,0.503-0.979,0.819-1.569,0.31
				C213.422,486.675,214.094,484.61,214.094,484.61z"/>
		</g>
		<g>
			<path fill="#DF9E7E" d="M206.147,490.629c0,0-0.645-0.673-0.783-1.103c0,0-0.191-0.805-0.362-1.366
				c-0.056-0.181-0.106-0.334-0.15-0.43c-0.184-0.402-0.705-1.23-0.874-2.319c-0.169-1.087-0.644-5.968-0.644-5.968l2.956-0.745
				l2.375-0.502c0,0,5.13,5.118,5.404,6.112c0.026,0.098,0.049,0.194,0.063,0.288c0.15,0.865-0.102,1.572-0.074,2.035
				c0.008,0.169-0.017,1.867-0.412,2.185c-0.548,0.44-1.107,0.524-1.566,0.378c0,0-1.113,0.816-2.04,0.767
				c0,0-1.002,0.788-2.138,0.398C207.902,490.359,206.796,491.044,206.147,490.629z"/>
		</g>
		<g>
			<path fill="#4A5055" d="M194.61,459.756c0,0,6.772,20.508,8.016,22.66c0,0,4.966-1.043,8.144-3.627l-7.435-22.133L194.61,459.756
				z"/>
		</g>
	</g>
</g>
</svg>
